<svg id="visual" viewBox="0 0 900 600" width="900" height="600" xmlns="http://www.w3.org/2000/svg" xmlns:xlink="http://www.w3.org/1999/xlink" version="1.1"><path d="M0 364L21.5 371C43 378 86 392 128.8 394C171.7 396 214.3 386 257.2 382.7C300 379.3 343 382.7 385.8 395.3C428.7 408 471.3 430 514.2 439.5C557 449 600 446 642.8 444.3C685.7 442.7 728.3 442.3 771.2 444.3C814 446.3 857 450.7 878.5 452.8L900 455L900 601L878.5 601C857 601 814 601 771.2 601C728.3 601 685.7 601 642.8 601C600 601 557 601 514.2 601C471.3 601 428.7 601 385.8 601C343 601 300 601 257.2 601C214.3 601 171.7 601 128.8 601C86 601 43 601 21.5 601L0 601Z" fill="#fee16c"></path><path d="M0 413L21.5 417C43 421 86 429 128.8 438.5C171.7 448 214.3 459 257.2 457.5C300 456 343 442 385.8 441.2C428.7 440.3 471.3 452.7 514.2 455C557 457.3 600 449.7 642.8 453.7C685.7 457.7 728.3 473.3 771.2 471.5C814 469.7 857 450.3 878.5 440.7L900 431L900 601L878.5 601C857 601 814 601 771.2 601C728.3 601 685.7 601 642.8 601C600 601 557 601 514.2 601C471.3 601 428.7 601 385.8 601C343 601 300 601 257.2 601C214.3 601 171.7 601 128.8 601C86 601 43 601 21.5 601L0 601Z" fill="#fdd738"></path><path d="M0 467L21.5 465.3C43 463.7 86 460.3 128.8 466.2C171.7 472 214.3 487 257.2 493.7C300 500.3 343 498.7 385.8 498C428.7 497.3 471.3 497.7 514.2 501C557 504.3 600 510.7 642.8 513.7C685.7 516.7 728.3 516.3 771.2 507.7C814 499 857 482 878.5 473.5L900 465L900 601L878.5 601C857 601 814 601 771.2 601C728.3 601 685.7 601 642.8 601C600 601 557 601 514.2 601C471.3 601 428.7 601 385.8 601C343 601 300 601 257.2 601C214.3 601 171.7 601 128.8 601C86 601 43 601 21.5 601L0 601Z" fill="#e6bf05"></path><path d="M0 513L21.5 518.7C43 524.3 86 535.7 128.8 543.8C171.7 552 214.3 557 257.2 555.5C300 554 343 546 385.8 545.2C428.7 544.3 471.3 550.7 514.2 548.5C557 546.3 600 535.7 642.8 536.5C685.7 537.3 728.3 549.7 771.2 547.7C814 545.7 857 529.3 878.5 521.2L900 513L900 601L878.5 601C857 601 814 601 771.2 601C728.3 601 685.7 601 642.8 601C600 601 557 601 514.2 601C471.3 601 428.7 601 385.8 601C343 601 300 601 257.2 601C214.3 601 171.7 601 128.8 601C86 601 43 601 21.5 601L0 601Z" fill="#b99a06"></path></svg>