<svg xmlns="http://www.w3.org/2000/svg" version="1.1" xmlns:xlink="http://www.w3.org/1999/xlink" xmlns:svgjs="http://svgjs.dev/svgjs" viewBox="0 0 325 100"><rect width="100%" height="100%" fill="#11784b"></rect><g fill="#fdd204">
    <rect width="100%" height="40" fill="#fdd204"></rect>

    <rect x="0" width="7.69%" height="80.89272650518492" rx="15"></rect>
      <rect x="50" width="7.69%" height="80.62883248715815" rx="15"></rect>
      <rect x="100" width="7.69%" height="62.265145517062074" rx="15"></rect>
      <rect x="150" width="7.69%" height="77.8076923548298" rx="15"></rect>
      <rect x="200" width="7.69%" height="61.39057785349939" rx="15"></rect>
      <rect x="250" width="7.69%" height="93.16399224183155" rx="15"></rect>
      <rect x="300" width="7.69%" height="57.84957804470689" rx="15"></rect>
  </g><g fill="#11784b">
    <rect x="25" y="6.214157113248121" width="7.69%" height="60" rx="15"></rect>
      <rect x="75" y="16.159485474453138" width="7.69%" height="60" rx="15"></rect>
      <rect x="125" y="24.542056128810625" width="7.69%" height="60" rx="15"></rect>
      <rect x="175" y="4.742505443530295" width="7.69%" height="60" rx="15"></rect>
      <rect x="225" y="10.81913349122747" width="7.69%" height="60" rx="15"></rect>
      <rect x="275" y="13.568973085733338" width="7.69%" height="60" rx="15"></rect>
  </g></svg>