<svg width="109" height="110" viewBox="0 0 109 110" fill="none" xmlns="http://www.w3.org/2000/svg">
<path d="M19.1807 1.26138C22.1065 0.982669 29.2122 0.611049 34.971 0.425239C40.7299 0.239429 48.4393 0.0536184 52.1547 0.00716583C55.87 -0.0392867 64.8334 0.146523 72.1248 0.378786C79.4163 0.657501 87.5437 1.07557 90.2373 1.30784C92.931 1.5401 95.8568 2.00463 96.7392 2.28334C97.6217 2.60851 99.3865 3.53756 100.687 4.32725C101.941 5.1634 103.798 6.97505 104.727 8.32217C105.703 9.7622 106.771 12.0384 107.142 13.6178C107.514 15.1507 108.071 21.0037 108.396 26.6245C108.721 32.2452 109 44.8803 109 54.7283C108.954 64.5762 108.721 77.2113 108.396 82.8321C108.071 88.4528 107.514 94.3058 107.142 95.8388C106.771 97.3717 105.749 99.6479 104.867 100.949C104.031 102.249 102.405 103.922 101.291 104.711C100.176 105.547 98.4576 106.523 97.4359 106.941C96.3677 107.359 93.1167 107.87 89.7729 108.149C86.5684 108.381 77.2799 108.799 69.1061 109.124C57.6349 109.542 50.9007 109.542 39.6153 109.124C31.5807 108.799 22.3852 108.381 19.1807 108.149C15.8368 107.87 12.5859 107.359 11.5177 106.941C10.496 106.523 8.77759 105.547 7.66297 104.711C6.54836 103.922 4.92288 102.249 4.08692 100.949C3.20452 99.6943 2.18279 97.3717 1.81125 95.8388C1.43971 94.3058 0.882403 88.6851 0.557307 83.2966C0.232211 77.9081 0 65.0872 0 54.7283C0 44.3694 0.232211 31.5484 0.557307 26.1599C0.882403 20.7715 1.43971 15.1507 1.81125 13.6178C2.18279 12.0384 3.25096 9.7622 4.22625 8.32217C5.15509 6.97505 6.96634 5.1634 8.26672 4.32725C9.52066 3.53756 11.3319 2.60851 12.2143 2.28334C13.0967 2.00463 16.2548 1.5401 19.1807 1.26138Z" fill="#F1F5F3"/>
<path d="M14.7684 9.25112C15.7902 8.97241 20.0628 8.60078 24.2891 8.36852C28.5153 8.13626 41.287 7.904 52.7118 7.85754C64.183 7.85754 77.7441 8.04335 82.8992 8.32207C88.1008 8.55433 93.163 9.01886 94.1847 9.29757C95.2993 9.57629 96.739 10.4589 97.7608 11.5737C98.736 12.5493 99.7113 14.1751 99.9435 15.1041C100.176 16.0796 100.64 20.9572 100.919 25.9276C101.197 30.898 101.43 43.8583 101.43 54.7282C101.43 65.5981 101.197 78.5583 100.919 83.5287C100.64 88.4992 100.176 93.4231 99.8971 94.4451C99.6184 95.56 98.736 97 97.6214 98.0684C96.6461 98.9974 95.0207 99.9729 94.0454 100.205C93.1165 100.484 88.1008 100.902 82.8992 101.134C77.7441 101.413 64.9725 101.645 54.4766 101.645C43.9806 101.645 31.209 101.413 26.0539 101.134C20.8524 100.902 15.8366 100.484 14.8613 100.205C13.9325 99.9729 12.307 98.9974 11.3317 98.0684C10.2171 97 9.33469 95.56 9.05603 94.4451C8.77738 93.4231 8.31296 88.4992 8.0343 83.5287C7.75565 78.5583 7.52344 65.691 7.52344 54.9604C7.52344 44.2299 7.75565 31.2696 8.0343 26.1598C8.31296 21.0501 8.77738 16.0332 9.05603 15.0112C9.33469 13.9428 10.2635 12.4099 11.2388 11.4808C12.1677 10.5053 13.7467 9.52984 14.7684 9.25112Z" fill="#11784B"/>
<path d="M48.3001 23.2332C49.0432 22.3971 50.4365 21.3751 51.4582 21.0035C52.5728 20.6319 54.1054 20.4461 55.3129 20.5855C56.3811 20.7248 57.9137 21.1429 58.6567 21.5145C59.4463 21.8861 60.7466 23.3262 61.6291 24.6733C62.465 25.9739 64.2298 29.2256 65.5766 31.8734C66.877 34.4748 67.9916 36.6116 68.0845 36.6116C68.131 36.6116 71.2426 37.2155 75.0509 38.0052C78.8127 38.7484 82.4352 39.6775 83.1783 40.0491C83.8749 40.4207 84.8037 41.071 85.2217 41.5356C85.6397 42.0465 86.3363 43.2078 86.7079 44.1833C87.1258 45.1124 87.451 46.6453 87.451 47.5279C87.451 48.4105 87.1723 49.8506 86.8008 50.6867C86.4757 51.4764 83.9678 54.6352 81.2277 57.6546C78.534 60.6276 76.3048 63.2289 76.3048 63.4147C76.3048 63.647 76.7228 67.1309 77.2337 71.2187C78.0232 77.3969 78.0696 78.9299 77.6052 80.277C77.2801 81.1596 76.4906 82.5067 75.8404 83.2499C75.1902 83.9932 73.8898 84.9687 72.961 85.4332C71.9857 85.9442 70.4066 86.3158 69.4778 86.3158C68.2239 86.3158 65.8089 85.3868 54.4769 79.8125L47.8357 83.0641C43.145 85.3868 40.73 86.3158 39.5225 86.3158C38.5472 86.3158 36.9682 85.9442 36.0394 85.4332C35.0641 84.9687 33.7637 83.9932 33.1135 83.2499C32.4633 82.5067 31.6738 81.1596 31.3487 80.277C30.8843 78.9299 30.9307 77.3969 31.7202 71.2187C32.2311 67.1309 32.6491 63.647 32.6491 63.4612C32.6491 63.2289 30.4198 60.6276 27.7262 57.6081C24.9861 54.6352 22.4782 51.4764 22.1531 50.6867C21.7816 49.8506 21.5029 48.4105 21.5029 47.5279C21.5029 46.6453 21.828 45.1124 22.246 44.1833C22.6175 43.2078 23.3142 42.0465 23.7322 41.5356C24.1501 41.071 25.079 40.4207 25.7756 40.0491C26.5187 39.6775 30.1412 38.7484 33.903 38.0052C37.7113 37.2155 40.8229 36.6116 40.8694 36.6116C40.9622 36.6116 42.3555 33.9638 44.0274 30.7121C45.6994 27.414 47.6035 24.0694 48.3001 23.2332Z" fill="#F1F5F3"/>
<path d="M45.6526 42.4182C46.2099 41.9072 48.2534 38.4233 50.1575 34.6606C52.8047 29.365 53.78 27.7856 54.5231 27.7856C55.2197 27.7856 56.195 29.365 58.8886 34.7535C60.7928 38.6091 62.8362 42.093 63.44 42.5576C64.0902 43.0221 67.3411 43.8582 71.4745 44.6479C75.2828 45.3912 78.7659 46.0415 79.1839 46.1809C79.6483 46.2738 80.1128 46.6454 80.2057 46.9705C80.345 47.2493 77.93 50.3616 74.8648 53.7991C71.7996 57.2366 69.1988 60.4882 69.0595 60.9992C68.9202 61.5102 69.2453 65.5516 69.7561 69.9646C70.3134 74.3311 70.6385 78.1402 70.4992 78.4189C70.3599 78.6976 69.9419 78.8834 69.5704 78.8834C69.1988 78.8834 65.6228 77.2576 54.4766 71.6833L47.2781 75.3066C43.3305 77.2576 39.7544 78.8834 39.3829 78.8834C39.0114 78.8834 38.5934 78.6976 38.4541 78.4189C38.3147 78.1402 38.6398 74.3311 39.1971 69.9646C39.708 65.5516 40.0331 61.5102 39.8938 60.9992C39.7544 60.4882 37.1072 57.283 34.042 53.9384C30.5589 50.0829 28.5618 47.4815 28.7012 47.0635C28.8405 46.6918 29.3978 46.2738 29.9551 46.1344C30.5589 45.995 34.0885 45.2983 37.8039 44.6015C42.6339 43.7189 44.9095 43.0685 45.6526 42.4182Z" fill="#8DC03B"/>
</svg>
